HIERARCHY
ROOT Hips
{
  OFFSET 0 89.5177 0.535
  CHANNELS 6 Xposition Yposition Zposition Zrotation Xrotation Yrotation
  JOINT Spine
  {
    OFFSET 12.0259 -0.162855 1.69034e-005
    CHANNELS 3 Zrotation Xrotation Yrotation
    JOINT Spine1
    {
      OFFSET 15.3169 -0.0121922 0
      CHANNELS 3 Zrotation Xrotation Yrotation
      JOINT Spine2
      {
        OFFSET 15.3176 -0.0121908 0
        CHANNELS 3 Zrotation Xrotation Yrotation
        JOINT Neck
        {
          OFFSET 19.9142 1.56338 0
          CHANNELS 3 Zrotation Xrotation Yrotation
          JOINT Head
          {
            OFFSET 6.92651 0 0
            CHANNELS 3 Zrotation Xrotation Yrotation
            End Site
            {
              OFFSET 20.7666 0 0
            }
          }
          JOINT LeftShoulder
          {
            OFFSET -6.20654 0.708824 7.28219
            CHANNELS 3 Zrotation Xrotation Yrotation
            JOINT LeftArm
            {
              OFFSET 14.108 0 -1.52588e-005
              CHANNELS 3 Zrotation Xrotation Yrotation
              JOINT LeftForeArm
              {
                OFFSET 28.5802 0 0
                CHANNELS 3 Zrotation Xrotation Yrotation
                JOINT LeftHand
                {
                  OFFSET 27.092 0 0
                  CHANNELS 3 Zrotation Xrotation Yrotation
                  End Site
                  {
                    OFFSET 9.55928 -0.186424 0.145352
                  }
                }
              }
            }
          }
          JOINT RightShoulder
          {
            OFFSET -6.20654 0.708866 -7.28218
            CHANNELS 3 Zrotation Xrotation Yrotation
            JOINT RightArm
            {
              OFFSET 14.108 0 1.52588e-005
              CHANNELS 3 Zrotation Xrotation Yrotation
              JOINT RightForeArm
              {
                OFFSET 28.5802 0 0
                CHANNELS 3 Zrotation Xrotation Yrotation
                JOINT RightHand
                {
                  OFFSET 27.092 0 0
                  CHANNELS 3 Zrotation Xrotation Yrotation
                  End Site
                  {
                    OFFSET 9.55929 -0.186417 -0.145354
                  }
                }
              }
            }
          }
        }
      }
    }
  }
  JOINT LeftUpLeg
  {
    OFFSET 0.005 -0.535 8.837
    CHANNELS 3 Zrotation Xrotation Yrotation
    JOINT LeftLeg
    {
      OFFSET 39.9035 0 0
      CHANNELS 3 Zrotation Xrotation Yrotation
      JOINT LeftFoot
      {
        OFFSET 39.6689 0 0
        CHANNELS 3 Zrotation Xrotation Yrotation
        JOINT LeftToe
        {
          OFFSET 10.1624 13.6296 0
          CHANNELS 3 Zrotation Xrotation Yrotation
          End Site
          {
            OFFSET 8.38147 0 0
          }
        }
      }
    }
  }
  JOINT RightUpLeg
  {
    OFFSET 0.005 -0.535 -8.837
    CHANNELS 3 Zrotation Xrotation Yrotation
    JOINT RightLeg
    {
      OFFSET 39.9035 0 0
      CHANNELS 3 Zrotation Xrotation Yrotation
      JOINT RightFoot
      {
        OFFSET 39.6689 0 0
        CHANNELS 3 Zrotation Xrotation Yrotation
        JOINT RightToe
        {
          OFFSET 10.1624 13.6296 0
          CHANNELS 3 Zrotation Xrotation Yrotation
          End Site
          {
            OFFSET 8.38147 0 0
          }
        }
      }
    }
  }
}
MOTION
Frames:	18
Frame Time:	0.0333333
68.0636 88.7612 86.0873 150.084 -64.4922 65.3444 -0.901453 2.0352 -2.34834 -1.7203 4.10588 -4.66865 -1.7203 4.10588 -4.66865 -8.31066e-012 -9.0191e-006 -5.27751e-005 10.4758 -4.31633 -1.00949 -178.873 -4.41603 -75.6614 -21.9832 13.2245 61.1311 -109.948 -1.37907e-015 -1.98785e-016 -55.3895 -23.4644 -32.0975 -177.913 6.38495 71.8543 -11.7529 -7.96682 -69.1516 -49.939 0 -4.77083e-015 -49.1886 35.6554 38.6437 -43.7928 4.11301 -179.436 -27.6272 -3.18055e-015 -7.95139e-016 -0.564221 5.28929 -10.5776 90 -5.96354e-016 -0 -2.60283 -4.18919 177.198 -28.7481 -7.95139e-016 7.95139e-016 -5.02889 -0.247334 0.526325 90 0 -3.97569e-015 
65.478 87.0433 78.4644 153.339 -66.0932 69.0456 -0.658541 1.73103 -2.77991 -1.23312 3.49234 -5.54341 -1.23312 3.49234 -5.54342 -8.30589e-012 -9.0191e-006 -5.27751e-005 9.34923 -2.00397 -0.0224464 -179.482 -1.87527 -74.5628 -22.0744 8.56264 59.2529 -88.7557 2.78299e-015 -2.38542e-015 -65.7783 -17.358 -34.4042 -178.158 5.5195 71.5082 -14.0915 -8.27043 -69.1951 -47.872 3.18055e-015 -1.59028e-015 -48.5989 35.044 36.6779 -44.0505 9.04532 -177.297 -23.2888 -6.36111e-015 -4.96962e-016 -1.18651 6.84895 -13.7485 90 -1.3977e-016 -3.18055e-015 -4.69891 -0.376472 176.639 -41.5877 -7.95139e-016 -0 -9.71936 2.66817 -5.30752 90 0 -3.18055e-015 
63.0019 84.5616 71.1111 153.509 -67.3298 69.9627 -0.415821 1.05463 -3.12801 -0.773645 2.13083 -6.24973 -0.773645 2.13083 -6.24974 -8.31225e-012 -9.0191e-006 -5.27751e-005 8.0241 0.437422 0.489728 179.791 0.690468 -73.1387 -22.6967 0.224095 56.101 -61.2372 -7.95139e-016 -0 -64.0386 -18.2959 -33.5563 -178.375 4.78695 71.2208 -13.4837 -7.9034 -68.3398 -44.7113 -6.36111e-015 -1.59028e-015 -48.6066 35.8491 36.9173 -45.6326 7.6279 -177.318 -31.3146 -3.18055e-015 1.98785e-015 3.87203 4.92684 -9.82907 90 4.47266e-016 3.18055e-015 -9.39881 0.560677 176.258 -58.0098 0 -0 -9.06549 4.65866 -9.31125 90 -3.18055e-015 -2.78299e-015 
60.5261 82.1353 64.3691 148.001 -68.9429 66.7078 0.0366281 -0.0129799 -3.70637 0.0723558 -0.0278313 -7.41256 0.0723558 -0.0278313 -7.41257 -8.31066e-012 -9.0191e-006 -5.27751e-005 8.76387 3.24078 1.09786 177.923 5.31471 -68.6177 -22.6787 -5.90023 47.4328 -34.6699 1.59028e-015 -1.59028e-015 -54.5449 -26.4226 -33.9856 -178.488 4.1997 70.181 -10.9418 -6.809 -66.7594 -39.9614 -3.18055e-015 2.38542e-015 -49.4445 36.6975 38.7762 -46.7504 6.83905 -179.578 -47.912 1.59028e-015 -1.59028e-015 13.6792 4.62893 -9.23165 90 -2.98177e-016 1.59028e-015 -15.741 -0.799468 174.173 -74.7718 -1.98785e-016 -1.59028e-015 -5.51252 5.127 -10.2573 90 0 -0 
58.7096 81.3277 57.8397 148.491 -67.9945 67.6832 0.0727578 -1.0067 -4.01837 0.0748055 -2.01555 -8.03715 0.0748054 -2.01555 -8.03716 -8.30112e-012 -9.0191e-006 -5.27751e-005 8.64145 4.87557 2.30621 175.499 11.0308 -67.6362 -14.3519 -14.0151 42.788 -15.2176 1.59028e-015 -0 -38.6164 -31.4052 -25.0288 -178.198 4.86507 69.6458 -9.06344 -4.08058 -66.22 -33.2495 3.18055e-015 3.97569e-015 -49.7441 36.3262 39.6485 -44.0679 7.81013 179.636 -51.3398 -1.59028e-015 -1.59028e-015 20.5562 4.70538 -8.58415 90 -1.98785e-016 3.18055e-015 -27.096 -1.0503 174.68 -86.3085 1.39149e-015 -0 -1.30659 4.65399 -9.24973 90 1.59028e-015 5.56597e-015 
57.4082 81.7275 50.8399 156.122 -68.525 74.4192 -0.00622918 -1.78365 -3.7351 -0.128831 -3.56263 -7.47565 -0.128831 -3.56263 -7.47566 -8.30748e-012 -9.0191e-006 -5.27751e-005 7.51211 7.47569 0.265226 176.166 10.7646 -70.2611 -12.4393 -10.7617 41.3992 -9.64896 4.77083e-015 -4.37326e-015 -39.7822 -40.327 -33.2981 -178.453 4.47563 70.9078 -6.25832 -3.42598 -65.69 -29.6629 -3.18055e-015 3.77691e-015 -46.0336 34.7387 36.0391 -38.7492 9.90882 -178.573 -50.8984 3.18055e-015 1.59028e-015 24.7072 5.14798 -8.5752 90 -3.97569e-016 -1.59028e-015 -37.6823 -0.290332 178.258 -90.156 -3.37934e-015 -1.59028e-015 2.33406 3.59995 -7.07107 90 0 -2.38542e-015 
56.3224 83.7095 43.1912 165.848 -68.3848 83.7524 -0.0995225 -1.90979 -3.43079 -0.313529 -3.80973 -6.87043 -0.313529 -3.80973 -6.87044 -8.31066e-012 -9.0191e-006 -5.27751e-005 7.06673 8.6782 -1.68286 177.02 8.34203 -70.2602 -9.15391 -8.88956 40.5191 -12.63 -7.95139e-015 -3.97569e-016 -50.4752 -44.4884 -48.0423 -178.09 5.37959 70.4228 -2.97546 -5.28548 -62.4742 -31.4989 3.97569e-016 -3.23025e-015 -43.62 39.0739 37.3769 -31.4876 11.6512 -178.099 -45.8971 -1.59028e-015 -1.59028e-015 22.7642 5.60592 -7.97909 90 -3.97569e-016 -1.59028e-015 -45.5115 -0.108034 -177.866 -84.5882 1.39149e-015 -1.19271e-015 5.89512 2.41147 -4.70715 90 -7.95139e-016 -3.97569e-016 
55.3988 86.2696 34.8732 171.907 -67.5085 88.7505 -0.276743 -1.81739 -2.99294 -0.648568 -3.61735 -5.99896 -0.648568 -3.61735 -5.99897 -8.31066e-012 -9.0191e-006 -5.27751e-005 7.82203 8.84769 -1.46361 178.174 4.94399 -69.701 -3.45157 -11.8932 40.8974 -17.5669 -4.77083e-015 3.97569e-016 -55.8844 -46.1729 -54.7413 -177.455 6.87923 69.6405 1.93599 -6.8958 -59.336 -32.0883 -3.57812e-015 3.42748e-015 -46.1344 44.1816 42.8197 -24.8341 12.9142 -177.131 -40.1352 -3.18055e-015 -3.18055e-015 16.6057 7.5161 -10.4065 90 -3.97569e-016 -0 -49.02 -2.66506 -174.694 -71.003 5.96354e-016 2.23633e-015 7.67415 1.63859 -3.24971 90 1.98785e-016 -3.97569e-016 
54.4062 88.626 25.8961 172.914 -67.1609 89.4635 -0.453746 -1.96201 -2.58064 -0.996331 -3.90104 -5.18109 -0.996331 -3.90104 -5.1811 -8.30112e-012 -9.0191e-006 -5.27751e-005 10.1304 8.18669 -0.490934 179.401 1.68005 -70.3889 4.59269 -12.7713 44.1078 -26.3856 3.97569e-016 -1.68967e-015 -59.3434 -47.2021 -56.8474 -177.174 7.92542 70.3034 8.96192 -6.68753 -57.4139 -30.0507 -4.77083e-015 1.19271e-015 -47.8781 46.253 46.1049 -16.772 10.5643 -177.364 -32.2934 -1.59028e-015 1.59028e-015 7.4619 10.049 -16.0038 90 7.95139e-016 4.77083e-015 -47.7685 -6.99791 -173.84 -52.2235 -2.38542e-015 4.96962e-015 9.1447 -0.882227 1.62274 90 9.93923e-016 2.78299e-015 
53.4157 89.7317 16.5372 172.085 -67.6254 88.5745 -0.513501 -2.12947 -2.17115 -1.10855 -4.23737 -4.36563 -1.10855 -4.23737 -4.36564 -8.30748e-012 -9.0191e-006 -5.27751e-005 12.4853 6.55358 0.480307 -179.385 -1.91348 -72.1674 12.054 -10.0151 48.1417 -38.5214 -1.19271e-015 3.37934e-015 -63.1451 -47.0953 -59.8877 -177.086 8.57508 71.1501 17.2828 -5.81442 -55.3637 -30.0761 -6.36111e-015 -7.95139e-016 -50.9559 47.8616 51.494 -8.1743 4.26488 -177.516 -24.8868 7.95139e-016 -2.38542e-015 -5.73557 11.2581 -21.7174 90 3.18055e-015 -1.59028e-015 -43.291 -11.6409 -173.011 -31.0253 1.59028e-015 3.18056e-015 8.33722 -4.49304 8.7222 90 5.51472e-015 7.95139e-016 
52.2894 89.1597 7.18571 172.114 -68.6063 90.2191 -0.513792 -1.99716 -2.15501 -1.1034 -3.97302 -4.33161 -1.1034 -3.97302 -4.33162 -8.3043e-012 -9.0191e-006 -5.27751e-005 13.688 3.12949 1.80167 -178.483 -5.35178 -74.153 17.9758 -4.1611 50.2707 -53.8928 1.59028e-015 -2.38542e-015 -66.2965 -49.2977 -64.3989 -176.767 9.61738 71.3195 24.569 -5.09017 -52.6109 -32.6584 -3.18055e-015 3.18055e-015 -59.4008 48.6061 63.1004 -1.0988 -1.16745 -178.954 -22.6714 9.93923e-016 -2.38542e-015 -15.3394 12.6096 -26.2861 90 -4.77083e-015 1.59028e-015 -39.2858 -16.6382 -172.959 -15.0974 -4.77083e-015 -9.93923e-016 0.236885 -5.65721 10.9848 90 -7.95139e-016 7.95139e-016 
51.1206 87.4137 -1.47458 173.785 -69.6303 94.4255 -0.6083 -1.57087 -2.38765 -1.28226 -3.11446 -4.79434 -1.28226 -3.11446 -4.79435 -8.3043e-012 -9.0191e-006 -5.27751e-005 14.4662 -1.48423 3.1604 -178.144 -7.38255 -75.849 27.9768 1.93861 50.0333 -75.0364 3.18055e-015 -1.59028e-015 -83.5455 -54.96 -88.8468 -176.526 10.5244 71.6132 31.7142 -3.88521 -49.8438 -35.4528 6.36111e-015 6.36111e-015 -65.3718 48.0648 70.9438 0.780939 -6.17546 178.04 -31.1469 0 1.59028e-015 -12.2815 13.7868 -29.1045 90 0 -7.95139e-016 -38.816 -20.246 -174.09 -12.6431 -6.36111e-015 3.18056e-015 0.630228 -6.95401 13.5222 90 -4.77083e-015 1.59028e-015 
50.3651 84.8771 -9.45609 175.517 -70.4159 96.5009 -0.61586 -1.07704 -2.09892 -1.27108 -2.13026 -4.21021 -1.27108 -2.13026 -4.21022 -8.30748e-012 -9.0191e-006 -5.27751e-005 13.9851 -6.25982 3.53587 -177.717 -10.9538 -78.1497 35.7171 4.82041 49.8534 -92.0663 6.36111e-015 -3.18055e-015 -79.5717 -56.84 -83.3202 -176.461 11.2918 72.4723 37.664 -1.94653 -47.8268 -38.4108 6.36111e-015 3.97569e-015 -67.9417 48.8224 74.7686 -2.53242 -3.99561 179.126 -47.6341 1.98785e-015 -1.59028e-015 -8.33144 14.8836 -31.8155 90 6.36111e-015 -7.95139e-016 -43.0879 -12.4858 -172.5 -26.347 0 -5.2181e-016 10.0476 -5.45472 2.1888 90 -4.67144e-015 2.38542e-015 
50.324 82.301 -16.904 172.146 -70.3708 90.8524 -0.717776 -0.818904 -1.24657 -1.45341 -1.62147 -2.50349 -1.45341 -1.62147 -2.5035 -8.31066e-012 -9.0191e-006 -5.27751e-005 12.3667 -11.2772 4.12909 -177.827 -14.7275 -81.5098 38.0049 6.62102 49.4628 -104.777 -1.59028e-015 9.54166e-015 -77.9024 -59.6088 -82.1318 -176.322 12.1925 73.0735 41.5019 0.456528 -47.0343 -41.3252 6.36111e-015 -7.15625e-015 -68.9416 47.9775 76.3131 -11.0593 -1.69732 -174.965 -67.1425 1.98785e-015 7.95139e-016 -9.48506 12.2103 -25.4328 90 0 7.95139e-016 -43.8886 -5.93848 -167.68 -36.2952 3.97569e-016 -1.47846e-015 17.9751 2.2656 -10.4136 90 -3.47873e-016 -1.59028e-015 
50.7812 81.4571 -23.8997 171.165 -69.9811 86.6618 -0.844575 -0.560938 -0.433377 -1.69349 -1.11494 -0.874858 -1.69349 -1.11494 -0.874868 -8.3043e-012 -9.0191e-006 -5.27751e-005 11.9191 -14.7766 4.82748 -177.939 -15.9911 -82.5581 40.6587 5.36135 48.7612 -113.891 -3.18055e-015 -9.54166e-015 -79.1209 -60.454 -84.9119 -175.782 12.6777 71.4245 41.983 6.197 -48.7241 -40.0344 0 5.56597e-015 -67.6177 44.2248 73.2288 -22.1044 -4.1204 -170.883 -82.8088 -2.23633e-015 3.97569e-016 -11.8516 5.96469 -12.1188 90 1.59028e-015 7.45442e-016 -41.9141 -4.49321 -164.31 -40.5515 3.97569e-016 2.98177e-015 21.611 3.50019 -7.4002 90 -2.0686e-015 -0 
51.513 82.0834 -30.8281 173.536 -70.491 88.858 -0.924177 -0.229247 -0.316873 -1.84963 -0.452884 -0.637227 -1.84963 -0.452884 -0.637237 -8.30271e-012 -9.0191e-006 -5.27751e-005 11.9109 -16.5572 4.45284 -178.386 -15.8809 -84.1216 41.5989 5.92123 51.0673 -120.243 -4.77083e-015 -1.27222e-014 -78.097 -60.8176 -85.4151 -175.96 11.9417 71.1555 39.0067 8.59674 -51.669 -37.0972 0 -7.95139e-015 -67.8176 42.1027 72.442 -31.6534 -7.11582 -172.41 -90.752 1.39149e-015 1.59028e-015 -9.20136 2.30692 -4.86857 90 -4.96962e-017 1.00945e-015 -34.513 -4.54879 -163.918 -37.8931 0 4.29872e-015 25.5745 1.46639 -4.00186 90 7.1314e-015 -3.97569e-016 
52.6731 83.8848 -37.7039 -178.969 -69.9187 99.0028 -1.16272 0.540513 -0.821937 -2.31772 1.098 -1.63266 -2.31772 1.098 -1.63267 -8.30589e-012 -9.0191e-006 -5.27751e-005 12.1072 -18.2353 4.37893 -178.396 -15.5261 -84.0291 37.402 5.95802 53.7553 -124.303 0 -6.36111e-015 -72.2708 -61.1845 -79.2692 -176.311 11.1752 71.599 31.989 6.41073 -54.0628 -35.576 3.18055e-015 -1.98785e-016 -64.2595 43.6215 68.6385 -40.3069 -7.14256 -176.355 -90.3202 1.98785e-015 -0 -5.66936 3.31031 -6.80429 90 -1.19271e-015 -7.95139e-016 -27.158 -2.49558 -166.184 -32.2599 1.59028e-015 1.59028e-015 24.6762 -1.04755 1.94561 90 3.01283e-015 3.97569e-016 
54.0442 86.34 -45.0096 -166.627 -69.6188 114.048 -0.983936 1.36017 -1.62386 -1.92974 2.74795 -3.22532 -1.92974 2.74795 -3.22533 -8.30748e-012 -9.0191e-006 -5.27751e-005 10.854 -18.5619 4.78829 -178.308 -14.8642 -83.4301 31.6688 4.75729 55.7372 -126.768 -7.95139e-016 6.36111e-015 -65.2772 -61.9333 -70.7232 -176.793 9.97955 72.0853 21.6951 2.5043 -57.9614 -34.9188 -3.18055e-015 -1.19271e-015 -55.0681 44.3574 56.3423 -44.1632 -4.3219 -178.911 -82.6617 0 -0 -5.09651 3.564 -7.24432 90 0 2.38542e-015 -19.3101 0.0288956 -169.023 -27.0185 -7.95139e-016 -8.74653e-015 18.9691 -3.29357 6.42812 90 3.47873e-015 7.95139e-016 
